<svg width="140" height="28" viewBox="0 0 140 28" fill="none" xmlns="http://www.w3.org/2000/svg">
<rect width="140" height="28" fill="#1E1E1E"/>
<g filter="url(#filter0_i_0_1)">
<rect width="384" height="854" transform="translate(-10 -10)" fill="#0F0F0F"/>
<g filter="url(#filter1_i_0_1)">
<path d="M47.3079 18.77C46.2879 18.77 45.3746 18.6233 44.5679 18.33C43.7613 18.0433 43.0746 17.62 42.5079 17.06C41.9413 16.4933 41.5113 15.79 41.2179 14.95C40.9246 14.11 40.7779 13.1367 40.7779 12.03C40.7779 11.0767 40.9113 10.2433 41.1779 9.53C41.4513 8.81667 41.8246 8.20667 42.2979 7.7C42.7713 7.19333 43.3146 6.78333 43.9279 6.47C44.5479 6.15667 45.2046 5.92667 45.8979 5.78C46.5913 5.63333 47.2913 5.56 47.9979 5.56C48.4979 5.56 48.9879 5.60667 49.4679 5.7C49.9479 5.78667 50.378 5.91 50.758 6.07C51.1446 6.23 51.4513 6.41333 51.6779 6.62C51.9113 6.82 52.028 7.03667 52.028 7.27C52.028 7.52333 51.9413 7.72333 51.7679 7.87C51.5946 8.01 51.3779 8.08 51.1179 8.08C50.9579 8.08 50.7846 8.04667 50.5979 7.98C50.4179 7.91333 50.2013 7.83667 49.9479 7.75C49.7013 7.66333 49.3979 7.58667 49.0379 7.52C48.6846 7.44667 48.2513 7.41 47.7379 7.41C47.1246 7.41 46.5579 7.51667 46.0379 7.73C45.5246 7.94333 45.0746 8.25 44.6879 8.65C44.3079 9.05 44.0113 9.54 43.7979 10.12C43.5913 10.6933 43.4879 11.3467 43.4879 12.08C43.4879 13.16 43.6546 14.0467 43.9879 14.74C44.3279 15.4267 44.8179 15.9333 45.4579 16.26C46.1046 16.58 46.8813 16.74 47.7879 16.74C48.2613 16.74 48.7013 16.6967 49.1079 16.61C49.5213 16.5167 49.8813 16.3767 50.1879 16.19C50.4946 15.9967 50.7346 15.7567 50.908 15.47C51.0813 15.1767 51.1679 14.83 51.1679 14.43C51.1679 14.1033 51.0746 13.8167 50.8879 13.57C50.7013 13.3167 50.4213 13.1167 50.0479 12.97C49.6813 12.8167 49.2246 12.73 48.6779 12.71C48.1179 12.67 47.6779 12.59 47.3579 12.47C47.0446 12.35 46.8879 12.13 46.8879 11.81C46.8879 11.5567 46.9846 11.36 47.1779 11.22C47.3779 11.08 47.6613 10.9833 48.0279 10.93C48.3946 10.87 48.8346 10.84 49.3479 10.84C50.0279 10.84 50.6413 10.9067 51.188 11.04C51.7413 11.1667 52.2113 11.3667 52.5979 11.64C52.9846 11.9067 53.2813 12.25 53.488 12.67C53.6946 13.09 53.7979 13.5867 53.7979 14.16C53.7979 15.0133 53.6346 15.7367 53.308 16.33C52.9879 16.9233 52.5346 17.4 51.9479 17.76C51.3679 18.1133 50.6846 18.37 49.8979 18.53C49.1113 18.69 48.2479 18.77 47.3079 18.77ZM58.4825 18.53C57.8291 18.53 57.2991 18.39 56.8925 18.11C56.4925 17.8367 56.1891 17.38 55.9825 16.74C55.7758 16.1 55.6358 15.2367 55.5625 14.15C55.5291 13.8767 55.5025 13.54 55.4825 13.14C55.4691 12.7333 55.4591 12.2967 55.4525 11.83C55.4525 11.3567 55.4558 10.8933 55.4625 10.44C55.4691 9.98 55.4758 9.55667 55.4825 9.17C55.4958 8.77667 55.5125 8.46 55.5325 8.22C55.5525 7.58 55.5958 7.05333 55.6625 6.64C55.7358 6.22 55.8625 5.90667 56.0425 5.7C56.2291 5.49333 56.4891 5.39 56.8225 5.39C57.2425 5.39 57.5325 5.52 57.6925 5.78C57.8525 6.03333 57.9325 6.46 57.9325 7.06C57.9325 7.25333 57.9258 7.50333 57.9125 7.81C57.8991 8.11667 57.8825 8.45667 57.8625 8.83C57.8425 9.20333 57.8191 9.59 57.7925 9.99C57.7725 10.3833 57.7525 10.7733 57.7325 11.16C57.7191 11.5467 57.7058 11.9033 57.6925 12.23C57.6791 12.5567 57.6725 12.8367 57.6725 13.07C57.6725 13.8633 57.6958 14.51 57.7425 15.01C57.7958 15.5033 57.8725 15.8867 57.9725 16.16C58.0725 16.4267 58.1925 16.6133 58.3325 16.72C58.4791 16.82 58.6458 16.87 58.8325 16.87C59.0858 16.87 59.2958 16.8233 59.4625 16.73C59.6358 16.63 59.7925 16.5333 59.9325 16.44C60.0725 16.34 60.2158 16.29 60.3625 16.29C60.5225 16.29 60.6458 16.3467 60.7325 16.46C60.8258 16.5733 60.8725 16.72 60.8725 16.9C60.8725 17.1133 60.8058 17.32 60.6725 17.52C60.5391 17.7133 60.3591 17.8833 60.1325 18.03C59.9125 18.1833 59.6591 18.3033 59.3725 18.39C59.0858 18.4833 58.7891 18.53 58.4825 18.53ZM67.3842 18.65C66.4242 18.65 65.6042 18.5 64.9242 18.2C64.2442 17.9067 63.6909 17.48 63.2642 16.92C62.8375 16.36 62.5242 15.6867 62.3242 14.9C62.1242 14.1067 62.0242 13.2167 62.0242 12.23C62.0242 11.99 62.0309 11.75 62.0442 11.51C62.0642 11.2633 62.0909 11.0267 62.1242 10.8C62.1575 10.5733 62.2009 10.37 62.2542 10.19C62.3742 9.73 62.5475 9.4 62.7742 9.2C63.0009 8.99333 63.2742 8.89 63.5942 8.89C63.8942 8.89 64.1209 8.95333 64.2742 9.08C64.4275 9.20667 64.5275 9.36667 64.5742 9.56C64.6275 9.74667 64.6575 9.93333 64.6642 10.12C64.6642 10.2533 64.6642 10.4067 64.6642 10.58C64.6642 10.7533 64.6642 10.9333 64.6642 11.12C64.6642 11.3067 64.6642 11.49 64.6642 11.67C64.6709 11.8433 64.6775 12.0033 64.6842 12.15C64.7175 13.0033 64.8209 13.7567 64.9942 14.41C65.1675 15.0567 65.4509 15.5633 65.8442 15.93C66.2442 16.29 66.7875 16.47 67.4742 16.47C68.1742 16.47 68.7375 16.3267 69.1642 16.04C69.5909 15.7467 69.9175 15.3267 70.1442 14.78C70.3775 14.2267 70.5509 13.5633 70.6642 12.79C70.6975 12.59 70.7242 12.3867 70.7442 12.18C70.7709 11.9667 70.7909 11.7533 70.8042 11.54C70.8242 11.3267 70.8442 11.1133 70.8642 10.9C70.8909 10.68 70.9175 10.46 70.9442 10.24C71.0175 9.80667 71.1475 9.47 71.3342 9.23C71.5209 8.99 71.7975 8.87 72.1642 8.87C72.4842 8.87 72.7209 8.97667 72.8742 9.19C73.0342 9.39667 73.1442 9.69 73.2042 10.07C73.2242 10.3167 73.2375 10.5633 73.2442 10.81C73.2509 11.05 73.2509 11.2933 73.2442 11.54C73.2442 11.7867 73.2375 12.03 73.2242 12.27C73.2175 12.51 73.2042 12.75 73.1842 12.99C73.0975 14.2167 72.8309 15.2533 72.3842 16.1C71.9375 16.94 71.2975 17.5733 70.4642 18C69.6375 18.4333 68.6109 18.65 67.3842 18.65ZM80.3781 18.69C79.2581 18.69 78.2881 18.52 77.4681 18.18C76.6481 17.84 76.0148 17.3167 75.5681 16.61C75.1214 15.8967 74.8981 14.99 74.8981 13.89C74.8981 12.9767 75.0481 12.18 75.3481 11.5C75.6548 10.8133 76.0748 10.24 76.6081 9.78C77.1414 9.32 77.7581 8.97667 78.4581 8.75C79.1581 8.51667 79.9048 8.4 80.6981 8.4C81.2381 8.4 81.7481 8.45667 82.2281 8.57C82.7148 8.68333 83.1448 8.86 83.5181 9.1C83.8981 9.33333 84.1948 9.63333 84.4081 10C84.6214 10.3667 84.7281 10.8033 84.7281 11.31C84.7281 11.85 84.6148 12.29 84.3881 12.63C84.1614 12.9633 83.8514 13.2267 83.4581 13.42C83.0648 13.6067 82.6181 13.7467 82.1181 13.84C81.6248 13.9267 81.1081 13.9933 80.5681 14.04C80.2948 14.0867 79.9714 14.1267 79.5981 14.16C79.2248 14.1867 78.8614 14.21 78.5081 14.23C78.1614 14.2433 77.8914 14.25 77.6981 14.25C77.4981 14.25 77.3614 14.2767 77.2881 14.33C77.2148 14.3833 77.1781 14.48 77.1781 14.62C77.1781 14.7867 77.2248 14.9833 77.3181 15.21C77.4114 15.43 77.5448 15.6467 77.7181 15.86C78.0381 16.2533 78.4081 16.5167 78.8281 16.65C79.2548 16.7767 79.7781 16.84 80.3981 16.84C80.9381 16.84 81.4314 16.7767 81.8781 16.65C82.3248 16.5167 82.7248 16.3867 83.0781 16.26C83.4381 16.1267 83.7614 16.06 84.0481 16.06C84.3081 16.06 84.5114 16.11 84.6581 16.21C84.8114 16.3033 84.8881 16.49 84.8881 16.77C84.8881 17.0233 84.7714 17.2667 84.5381 17.5C84.3114 17.7333 83.9948 17.9367 83.5881 18.11C83.1814 18.29 82.7048 18.43 82.1581 18.53C81.6114 18.6367 81.0181 18.69 80.3781 18.69ZM79.5881 13.13C80.1281 13.13 80.6314 13.08 81.0981 12.98C81.5648 12.8733 81.9414 12.6967 82.2281 12.45C82.5214 12.1967 82.6681 11.85 82.6681 11.41C82.6681 10.89 82.4781 10.5 82.0981 10.24C81.7181 9.97333 81.1848 9.84 80.4981 9.84C80.0914 9.84 79.6948 9.91333 79.3081 10.06C78.9214 10.2 78.5781 10.3967 78.2781 10.65C77.9781 10.9033 77.7381 11.19 77.5581 11.51C77.3781 11.83 77.2881 12.1733 77.2881 12.54C77.2881 12.7267 77.3614 12.8633 77.5081 12.95C77.6614 13.03 77.9048 13.08 78.2381 13.1C78.5781 13.12 79.0281 13.13 79.5881 13.13ZM91.8829 18.46C91.5163 18.46 91.2396 18.3367 91.0529 18.09C90.8663 17.85 90.7529 17.46 90.7129 16.92C90.7063 16.7 90.6996 16.4067 90.6929 16.04C90.6929 15.6667 90.6963 15.25 90.7029 14.79C90.7096 14.3233 90.7163 13.84 90.7229 13.34C90.7363 12.8333 90.7463 12.3367 90.7529 11.85C90.7663 11.3567 90.7729 10.9 90.7729 10.48C90.7796 10.0533 90.7829 9.69 90.7829 9.39C90.7829 8.99 90.7263 8.72333 90.6129 8.59C90.5063 8.45667 90.2596 8.39 89.8729 8.39C89.4596 8.39 89.0429 8.42333 88.6229 8.49C88.2096 8.55 87.7996 8.58 87.3929 8.58C87.1929 8.58 87.0129 8.54333 86.8529 8.47C86.6929 8.39667 86.5663 8.29 86.4729 8.15C86.3863 8.00333 86.3429 7.82667 86.3429 7.62C86.3429 7.38 86.4629 7.17 86.7029 6.99C86.9496 6.81 87.2896 6.66 87.7229 6.54C88.1563 6.41333 88.6663 6.31333 89.2529 6.24C89.8396 6.16 90.4796 6.10333 91.1729 6.07C91.8663 6.03667 92.5863 6.02 93.3329 6.02C93.8196 6.02 94.2963 6.03 94.7629 6.05C95.2363 6.07 95.6796 6.10667 96.0929 6.16C96.5129 6.21333 96.8796 6.29333 97.193 6.4C97.5129 6.50667 97.7629 6.64667 97.9429 6.82C98.1229 6.98667 98.2129 7.19667 98.2129 7.45C98.2129 7.68333 98.163 7.87667 98.063 8.03C97.9696 8.18333 97.8329 8.3 97.653 8.38C97.4729 8.45333 97.2496 8.49 96.9829 8.49C96.6363 8.49 96.3396 8.48 96.0929 8.46C95.8463 8.43333 95.5563 8.42 95.2229 8.42C94.7296 8.42 94.3696 8.46 94.1429 8.54C93.9163 8.61333 93.7729 8.76 93.7129 8.98C93.6529 9.19333 93.6163 9.51667 93.6029 9.95C93.5963 10.2367 93.5829 10.5433 93.5629 10.87C93.5496 11.1967 93.5329 11.54 93.5129 11.9C93.4929 12.26 93.4663 12.6267 93.4329 13C93.4063 13.3667 93.3763 13.7333 93.3429 14.1C93.3163 14.46 93.2863 14.8133 93.2529 15.16C93.2263 15.5 93.1963 15.82 93.1629 16.12C93.1296 16.42 93.0996 16.6933 93.0729 16.94C92.9929 17.32 92.9063 17.6233 92.8129 17.85C92.7263 18.07 92.6096 18.2267 92.4629 18.32C92.3229 18.4133 92.1296 18.46 91.8829 18.46ZM103.966 18.65C103.006 18.65 102.186 18.5 101.506 18.2C100.826 17.9067 100.273 17.48 99.8462 16.92C99.4196 16.36 99.1062 15.6867 98.9062 14.9C98.7062 14.1067 98.6062 13.2167 98.6062 12.23C98.6062 11.99 98.6129 11.75 98.6262 11.51C98.6462 11.2633 98.6729 11.0267 98.7062 10.8C98.7396 10.5733 98.7829 10.37 98.8362 10.19C98.9562 9.73 99.1296 9.4 99.3562 9.2C99.5829 8.99333 99.8562 8.89 100.176 8.89C100.476 8.89 100.703 8.95333 100.856 9.08C101.01 9.20667 101.11 9.36667 101.156 9.56C101.21 9.74667 101.24 9.93333 101.246 10.12C101.246 10.2533 101.246 10.4067 101.246 10.58C101.246 10.7533 101.246 10.9333 101.246 11.12C101.246 11.3067 101.246 11.49 101.246 11.67C101.253 11.8433 101.26 12.0033 101.266 12.15C101.3 13.0033 101.403 13.7567 101.576 14.41C101.75 15.0567 102.033 15.5633 102.426 15.93C102.826 16.29 103.37 16.47 104.056 16.47C104.756 16.47 105.32 16.3267 105.746 16.04C106.173 15.7467 106.5 15.3267 106.726 14.78C106.96 14.2267 107.133 13.5633 107.246 12.79C107.28 12.59 107.306 12.3867 107.326 12.18C107.353 11.9667 107.373 11.7533 107.386 11.54C107.406 11.3267 107.426 11.1133 107.446 10.9C107.473 10.68 107.5 10.46 107.526 10.24C107.6 9.80667 107.73 9.47 107.916 9.23C108.103 8.99 108.38 8.87 108.746 8.87C109.066 8.87 109.303 8.97667 109.456 9.19C109.616 9.39667 109.726 9.69 109.786 10.07C109.806 10.3167 109.82 10.5633 109.826 10.81C109.833 11.05 109.833 11.2933 109.826 11.54C109.826 11.7867 109.82 12.03 109.806 12.27C109.8 12.51 109.786 12.75 109.766 12.99C109.68 14.2167 109.413 15.2533 108.966 16.1C108.52 16.94 107.88 17.5733 107.046 18C106.22 18.4333 105.193 18.65 103.966 18.65ZM116.48 18.23C115.32 18.23 114.367 18.0367 113.62 17.65C112.88 17.2633 112.33 16.6867 111.97 15.92C111.61 15.1467 111.43 14.1933 111.43 13.06C111.43 12.5867 111.447 12.0967 111.48 11.59C111.513 11.0833 111.56 10.5767 111.62 10.07C111.68 9.56333 111.753 9.07667 111.84 8.61C111.927 8.13667 112.02 7.70667 112.12 7.32C112.22 6.92667 112.33 6.59 112.45 6.31C112.617 6.01 112.813 5.77667 113.04 5.61C113.267 5.44333 113.52 5.36 113.8 5.36C114.133 5.36 114.383 5.45667 114.55 5.65C114.723 5.84333 114.81 6.10333 114.81 6.43C114.81 6.58333 114.8 6.76 114.78 6.96C114.767 7.15333 114.747 7.36333 114.72 7.59C114.7 7.81 114.677 8.03333 114.65 8.26C114.63 8.48667 114.61 8.70667 114.59 8.92C114.57 9.12667 114.56 9.32667 114.56 9.52C114.56 9.80667 114.57 10.0333 114.59 10.2C114.61 10.36 114.673 10.44 114.78 10.44C114.873 10.44 115.007 10.4 115.18 10.32C115.36 10.2333 115.557 10.13 115.77 10.01C115.997 9.87 116.287 9.74333 116.64 9.63C117 9.51 117.447 9.45 117.98 9.45C118.853 9.45 119.6 9.63 120.22 9.99C120.84 10.3433 121.313 10.8367 121.64 11.47C121.973 12.1033 122.14 12.8433 122.14 13.69C122.14 14.4567 121.997 15.1267 121.71 15.7C121.43 16.2667 121.033 16.74 120.52 17.12C120.013 17.4933 119.417 17.7733 118.73 17.96C118.043 18.14 117.293 18.23 116.48 18.23ZM116.75 16.68C117.063 16.68 117.387 16.6333 117.72 16.54C118.06 16.4467 118.373 16.2933 118.66 16.08C118.953 15.8667 119.193 15.59 119.38 15.25C119.567 14.9033 119.66 14.48 119.66 13.98C119.66 13.3667 119.557 12.8467 119.35 12.42C119.143 11.9867 118.837 11.6567 118.43 11.43C118.023 11.2033 117.513 11.09 116.9 11.09C116.36 11.09 115.877 11.1933 115.45 11.4C115.03 11.6 114.7 11.8867 114.46 12.26C114.22 12.6267 114.1 13.0633 114.1 13.57C114.1 14.1833 114.187 14.7233 114.36 15.19C114.54 15.6567 114.82 16.0233 115.2 16.29C115.587 16.55 116.103 16.68 116.75 16.68ZM129.089 18.69C127.969 18.69 126.999 18.52 126.179 18.18C125.359 17.84 124.726 17.3167 124.279 16.61C123.832 15.8967 123.609 14.99 123.609 13.89C123.609 12.9767 123.759 12.18 124.059 11.5C124.366 10.8133 124.786 10.24 125.319 9.78C125.852 9.32 126.469 8.97667 127.169 8.75C127.869 8.51667 128.616 8.4 129.409 8.4C129.949 8.4 130.459 8.45667 130.939 8.57C131.426 8.68333 131.856 8.86 132.229 9.1C132.609 9.33333 132.906 9.63333 133.119 10C133.332 10.3667 133.439 10.8033 133.439 11.31C133.439 11.85 133.326 12.29 133.099 12.63C132.872 12.9633 132.562 13.2267 132.169 13.42C131.776 13.6067 131.329 13.7467 130.829 13.84C130.336 13.9267 129.819 13.9933 129.279 14.04C129.006 14.0867 128.682 14.1267 128.309 14.16C127.936 14.1867 127.572 14.21 127.219 14.23C126.872 14.2433 126.602 14.25 126.409 14.25C126.209 14.25 126.072 14.2767 125.999 14.33C125.926 14.3833 125.889 14.48 125.889 14.62C125.889 14.7867 125.936 14.9833 126.029 15.21C126.122 15.43 126.256 15.6467 126.429 15.86C126.749 16.2533 127.119 16.5167 127.539 16.65C127.966 16.7767 128.489 16.84 129.109 16.84C129.649 16.84 130.142 16.7767 130.589 16.65C131.036 16.5167 131.436 16.3867 131.789 16.26C132.149 16.1267 132.472 16.06 132.759 16.06C133.019 16.06 133.222 16.11 133.369 16.21C133.522 16.3033 133.599 16.49 133.599 16.77C133.599 17.0233 133.482 17.2667 133.249 17.5C133.022 17.7333 132.706 17.9367 132.299 18.11C131.892 18.29 131.416 18.43 130.869 18.53C130.322 18.6367 129.729 18.69 129.089 18.69ZM128.299 13.13C128.839 13.13 129.342 13.08 129.809 12.98C130.276 12.8733 130.652 12.6967 130.939 12.45C131.232 12.1967 131.379 11.85 131.379 11.41C131.379 10.89 131.189 10.5 130.809 10.24C130.429 9.97333 129.896 9.84 129.209 9.84C128.802 9.84 128.406 9.91333 128.019 10.06C127.632 10.2 127.289 10.3967 126.989 10.65C126.689 10.9033 126.449 11.19 126.269 11.51C126.089 11.83 125.999 12.1733 125.999 12.54C125.999 12.7267 126.072 12.8633 126.219 12.95C126.372 13.03 126.616 13.08 126.949 13.1C127.289 13.12 127.739 13.13 128.299 13.13Z" fill="white"/>
</g>
<g filter="url(#filter2_i_0_1)">
<rect y="0.236816" width="35" height="22.01" rx="8" transform="rotate(-0.387612 0 0.236816)" fill="#F61601"/>
<g filter="url(#filter3_i_0_1)">
<path d="M22.9642 8.86544C24.1636 9.65741 24.161 11.4182 22.9593 12.2067L16.0971 16.7087C14.7671 17.5813 13 16.6272 13 15.0364V6.00334C13 4.40995 14.7724 3.45637 16.102 4.33435L22.9642 8.86544Z" fill="#FEFEFC"/>
</g>
<path d="M22.9642 8.86544C24.1636 9.65741 24.161 11.4182 22.9593 12.2067L16.0971 16.7087C14.7671 17.5813 13 16.6272 13 15.0364V6.00334C13 4.40995 14.7724 3.45637 16.102 4.33435L22.9642 8.86544Z" stroke="black"/>
</g>
</g>
<defs>
<filter id="filter0_i_0_1" x="-10" y="-10" width="384" height="858" filterUnits="userSpaceOnUse" color-interpolation-filters="sRGB">
<feFlood flood-opacity="0" result="BackgroundImageFix"/>
<feBlend mode="normal" in="SourceGraphic" in2="BackgroundImageFix" result="shape"/>
<feColorMatrix in="SourceAlpha" type="matrix" values="0 0 0 0 0 0 0 0 0 0 0 0 0 0 0 0 0 0 127 0" result="hardAlpha"/>
<feOffset dy="4"/>
<feGaussianBlur stdDeviation="2"/>
<feComposite in2="hardAlpha" operator="arithmetic" k2="-1" k3="1"/>
<feColorMatrix type="matrix" values="0 0 0 0 0 0 0 0 0 0 0 0 0 0 0 0 0 0 0.25 0"/>
<feBlend mode="normal" in2="shape" result="effect1_innerShadow_0_1"/>
</filter>
<filter id="filter1_i_0_1" x="40.7778" y="5.35999" width="92.8213" height="17.41" filterUnits="userSpaceOnUse" color-interpolation-filters="sRGB">
<feFlood flood-opacity="0" result="BackgroundImageFix"/>
<feBlend mode="normal" in="SourceGraphic" in2="BackgroundImageFix" result="shape"/>
<feColorMatrix in="SourceAlpha" type="matrix" values="0 0 0 0 0 0 0 0 0 0 0 0 0 0 0 0 0 0 127 0" result="hardAlpha"/>
<feOffset dy="4"/>
<feGaussianBlur stdDeviation="2"/>
<feComposite in2="hardAlpha" operator="arithmetic" k2="-1" k3="1"/>
<feColorMatrix type="matrix" values="0 0 0 0 0 0 0 0 0 0 0 0 0 0 0 0 0 0 0.25 0"/>
<feBlend mode="normal" in2="shape" result="effect1_innerShadow_0_1"/>
</filter>
<filter id="filter2_i_0_1" x="0" y="0" width="35.1482" height="26.2462" filterUnits="userSpaceOnUse" color-interpolation-filters="sRGB">
<feFlood flood-opacity="0" result="BackgroundImageFix"/>
<feBlend mode="normal" in="SourceGraphic" in2="BackgroundImageFix" result="shape"/>
<feColorMatrix in="SourceAlpha" type="matrix" values="0 0 0 0 0 0 0 0 0 0 0 0 0 0 0 0 0 0 127 0" result="hardAlpha"/>
<feOffset dy="4"/>
<feGaussianBlur stdDeviation="2"/>
<feComposite in2="hardAlpha" operator="arithmetic" k2="-1" k3="1"/>
<feColorMatrix type="matrix" values="0 0 0 0 0 0 0 0 0 0 0 0 0 0 0 0 0 0 0.25 0"/>
<feBlend mode="normal" in2="shape" result="effect1_innerShadow_0_1"/>
</filter>
<filter id="filter3_i_0_1" x="12.5" y="3.49915" width="11.8623" height="18.0415" filterUnits="userSpaceOnUse" color-interpolation-filters="sRGB">
<feFlood flood-opacity="0" result="BackgroundImageFix"/>
<feBlend mode="normal" in="SourceGraphic" in2="BackgroundImageFix" result="shape"/>
<feColorMatrix in="SourceAlpha" type="matrix" values="0 0 0 0 0 0 0 0 0 0 0 0 0 0 0 0 0 0 127 0" result="hardAlpha"/>
<feOffset dy="4"/>
<feGaussianBlur stdDeviation="2"/>
<feComposite in2="hardAlpha" operator="arithmetic" k2="-1" k3="1"/>
<feColorMatrix type="matrix" values="0 0 0 0 0 0 0 0 0 0 0 0 0 0 0 0 0 0 0.25 0"/>
<feBlend mode="normal" in2="shape" result="effect1_innerShadow_0_1"/>
</filter>
</defs>
</svg>
