<svg width="49" height="9" viewBox="0 0 49 9" fill="none" xmlns="http://www.w3.org/2000/svg">
<path d="M4.296 8.462C3.684 8.462 3.136 8.374 2.652 8.198C2.168 8.026 1.756 7.772 1.416 7.436C1.076 7.096 0.818 6.674 0.642 6.17C0.466 5.666 0.378 5.082 0.378 4.418C0.378 3.846 0.458 3.346 0.618 2.918C0.782 2.49 1.006 2.124 1.29 1.82C1.574 1.516 1.9 1.27 2.268 1.082C2.64 0.894 3.034 0.756 3.45 0.668C3.866 0.58 4.286 0.536 4.71 0.536C5.01 0.536 5.304 0.564 5.592 0.62C5.88 0.672 6.138 0.746 6.366 0.842C6.598 0.938 6.782 1.048 6.918 1.172C7.058 1.292 7.128 1.422 7.128 1.562C7.128 1.714 7.076 1.834 6.972 1.922C6.868 2.006 6.738 2.048 6.582 2.048C6.486 2.048 6.382 2.028 6.27 1.988C6.162 1.948 6.032 1.902 5.88 1.85C5.732 1.798 5.55 1.752 5.334 1.712C5.122 1.668 4.862 1.646 4.554 1.646C4.186 1.646 3.846 1.71 3.534 1.838C3.226 1.966 2.956 2.15 2.724 2.39C2.496 2.63 2.318 2.924 2.19 3.272C2.066 3.616 2.004 4.008 2.004 4.448C2.004 5.096 2.104 5.628 2.304 6.044C2.508 6.456 2.802 6.76 3.186 6.956C3.574 7.148 4.04 7.244 4.584 7.244C4.868 7.244 5.132 7.218 5.376 7.166C5.624 7.11 5.84 7.026 6.024 6.914C6.208 6.798 6.352 6.654 6.456 6.482C6.56 6.306 6.612 6.098 6.612 5.858C6.612 5.662 6.556 5.49 6.444 5.342C6.332 5.19 6.164 5.07 5.94 4.982C5.72 4.89 5.446 4.838 5.118 4.826C4.782 4.802 4.518 4.754 4.326 4.682C4.138 4.61 4.044 4.478 4.044 4.286C4.044 4.134 4.102 4.016 4.218 3.932C4.338 3.848 4.508 3.79 4.728 3.758C4.948 3.722 5.212 3.704 5.52 3.704C5.928 3.704 6.296 3.744 6.624 3.824C6.956 3.9 7.238 4.02 7.47 4.184C7.702 4.344 7.88 4.55 8.004 4.802C8.128 5.054 8.19 5.352 8.19 5.696C8.19 6.208 8.092 6.642 7.896 6.998C7.704 7.354 7.432 7.64 7.08 7.856C6.732 8.068 6.322 8.222 5.85 8.318C5.378 8.414 4.86 8.462 4.296 8.462ZM33.2179 8.462C32.6059 8.462 32.0579 8.374 31.5739 8.198C31.0899 8.026 30.6779 7.772 30.3379 7.436C29.9979 7.096 29.7399 6.674 29.5639 6.17C29.3879 5.666 29.2999 5.082 29.2999 4.418C29.2999 3.846 29.3799 3.346 29.5399 2.918C29.7039 2.49 29.9279 2.124 30.2119 1.82C30.4959 1.516 30.8219 1.27 31.1899 1.082C31.5619 0.894 31.9559 0.756 32.3719 0.668C32.7879 0.58 33.2079 0.536 33.6319 0.536C33.9319 0.536 34.2259 0.564 34.5139 0.62C34.8019 0.672 35.0599 0.746 35.2879 0.842C35.5199 0.938 35.7039 1.048 35.8399 1.172C35.9799 1.292 36.0499 1.422 36.0499 1.562C36.0499 1.714 35.9979 1.834 35.8939 1.922C35.7899 2.006 35.6599 2.048 35.5039 2.048C35.4079 2.048 35.3039 2.028 35.1919 1.988C35.0839 1.948 34.9539 1.902 34.8019 1.85C34.6539 1.798 34.4719 1.752 34.2559 1.712C34.0439 1.668 33.7839 1.646 33.4759 1.646C33.1079 1.646 32.7679 1.71 32.4559 1.838C32.1479 1.966 31.8779 2.15 31.6459 2.39C31.4179 2.63 31.2399 2.924 31.1119 3.272C30.9879 3.616 30.9259 4.008 30.9259 4.448C30.9259 5.096 31.0259 5.628 31.2259 6.044C31.4299 6.456 31.7239 6.76 32.1079 6.956C32.4959 7.148 32.9619 7.244 33.5059 7.244C33.7899 7.244 34.0539 7.218 34.2979 7.166C34.5459 7.11 34.7619 7.026 34.9459 6.914C35.1299 6.798 35.2739 6.654 35.3779 6.482C35.4819 6.306 35.5339 6.098 35.5339 5.858C35.5339 5.662 35.4779 5.49 35.3659 5.342C35.2539 5.19 35.0859 5.07 34.8619 4.982C34.6419 4.89 34.3679 4.838 34.0399 4.826C33.7039 4.802 33.4399 4.754 33.2479 4.682C33.0599 4.61 32.9659 4.478 32.9659 4.286C32.9659 4.134 33.0239 4.016 33.1399 3.932C33.2599 3.848 33.4299 3.79 33.6499 3.758C33.8699 3.722 34.1339 3.704 34.4419 3.704C34.8499 3.704 35.2179 3.744 35.5459 3.824C35.8779 3.9 36.1599 4.02 36.3919 4.184C36.6239 4.344 36.8019 4.55 36.9259 4.802C37.0499 5.054 37.1119 5.352 37.1119 5.696C37.1119 6.208 37.0139 6.642 36.8179 6.998C36.6259 7.354 36.3539 7.64 36.0019 7.856C35.6539 8.068 35.2439 8.222 34.7719 8.318C34.2999 8.414 33.7819 8.462 33.2179 8.462Z" fill="#0038FF"/>
<path d="M11.0007 8.318C10.6087 8.318 10.2907 8.234 10.0467 8.066C9.80672 7.902 9.62472 7.628 9.50072 7.244C9.37672 6.86 9.29272 6.342 9.24872 5.69C9.22872 5.526 9.21272 5.324 9.20072 5.084C9.19272 4.84 9.18672 4.578 9.18272 4.298C9.18272 4.014 9.18472 3.736 9.18872 3.464C9.19272 3.188 9.19672 2.934 9.20072 2.702C9.20872 2.466 9.21872 2.276 9.23072 2.132C9.24272 1.748 9.26872 1.432 9.30872 1.184C9.35272 0.932 9.42872 0.744 9.53672 0.62C9.64872 0.496 9.80472 0.434 10.0047 0.434C10.2567 0.434 10.4307 0.512 10.5267 0.668C10.6227 0.82 10.6707 1.076 10.6707 1.436C10.6707 1.552 10.6667 1.702 10.6587 1.886C10.6507 2.07 10.6407 2.274 10.6287 2.498C10.6167 2.722 10.6027 2.954 10.5867 3.194C10.5747 3.43 10.5627 3.664 10.5507 3.896C10.5427 4.128 10.5347 4.342 10.5267 4.538C10.5187 4.734 10.5147 4.902 10.5147 5.042C10.5147 5.518 10.5287 5.906 10.5567 6.206C10.5887 6.502 10.6347 6.732 10.6947 6.896C10.7547 7.056 10.8267 7.168 10.9107 7.232C10.9987 7.292 11.0987 7.322 11.2107 7.322C11.3627 7.322 11.4887 7.294 11.5887 7.238C11.6927 7.178 11.7867 7.12 11.8707 7.064C11.9547 7.004 12.0407 6.974 12.1287 6.974C12.2247 6.974 12.2987 7.008 12.3507 7.076C12.4067 7.144 12.4347 7.232 12.4347 7.34C12.4347 7.468 12.3947 7.592 12.3147 7.712C12.2347 7.828 12.1267 7.93 11.9907 8.018C11.8587 8.11 11.7067 8.182 11.5347 8.234C11.3627 8.29 11.1847 8.318 11.0007 8.318Z" fill="#BD00FF"/>
<path d="M16.6298 8.318C16.1658 8.318 15.7178 8.266 15.2858 8.162C14.8578 8.058 14.4738 7.892 14.1338 7.664C13.7978 7.436 13.5318 7.14 13.3358 6.776C13.1398 6.408 13.0417 5.96 13.0417 5.432C13.0417 4.852 13.1358 4.346 13.3238 3.914C13.5158 3.478 13.7798 3.116 14.1158 2.828C14.4518 2.536 14.8398 2.318 15.2798 2.174C15.7238 2.026 16.1978 1.952 16.7018 1.952C17.1578 1.952 17.6038 2.01 18.0398 2.126C18.4758 2.242 18.8678 2.424 19.2158 2.672C19.5638 2.92 19.8398 3.242 20.0438 3.638C20.2518 4.03 20.3558 4.504 20.3558 5.06C20.3558 5.48 20.2698 5.884 20.0978 6.272C19.9298 6.66 19.6838 7.008 19.3598 7.316C19.0398 7.62 18.6498 7.862 18.1898 8.042C17.7338 8.226 17.2138 8.318 16.6298 8.318ZM16.5758 6.992C16.9838 6.992 17.3298 6.93 17.6138 6.806C17.8978 6.678 18.1278 6.512 18.3038 6.308C18.4838 6.1 18.6138 5.874 18.6938 5.63C18.7778 5.386 18.8198 5.144 18.8198 4.904C18.8198 4.568 18.7538 4.284 18.6218 4.052C18.4938 3.816 18.3218 3.626 18.1058 3.482C17.8938 3.338 17.6558 3.234 17.3918 3.17C17.1278 3.102 16.8578 3.068 16.5818 3.068C16.2218 3.068 15.8818 3.146 15.5618 3.302C15.2418 3.454 14.9818 3.686 14.7818 3.998C14.5858 4.306 14.4878 4.696 14.4878 5.168C14.4878 5.552 14.5658 5.882 14.7218 6.158C14.8818 6.43 15.1178 6.638 15.4298 6.782C15.7418 6.922 16.1238 6.992 16.5758 6.992ZM24.6688 8.318C24.2048 8.318 23.7568 8.266 23.3248 8.162C22.8968 8.058 22.5128 7.892 22.1728 7.664C21.8368 7.436 21.5708 7.14 21.3748 6.776C21.1788 6.408 21.0808 5.96 21.0808 5.432C21.0808 4.852 21.1748 4.346 21.3628 3.914C21.5548 3.478 21.8188 3.116 22.1548 2.828C22.4908 2.536 22.8788 2.318 23.3188 2.174C23.7628 2.026 24.2368 1.952 24.7408 1.952C25.1968 1.952 25.6428 2.01 26.0788 2.126C26.5148 2.242 26.9068 2.424 27.2548 2.672C27.6028 2.92 27.8788 3.242 28.0828 3.638C28.2908 4.03 28.3948 4.504 28.3948 5.06C28.3948 5.48 28.3088 5.884 28.1368 6.272C27.9688 6.66 27.7228 7.008 27.3988 7.316C27.0788 7.62 26.6888 7.862 26.2288 8.042C25.7728 8.226 25.2528 8.318 24.6688 8.318ZM24.6148 6.992C25.0228 6.992 25.3688 6.93 25.6528 6.806C25.9368 6.678 26.1668 6.512 26.3428 6.308C26.5228 6.1 26.6528 5.874 26.7328 5.63C26.8168 5.386 26.8588 5.144 26.8588 4.904C26.8588 4.568 26.7928 4.284 26.6608 4.052C26.5328 3.816 26.3608 3.626 26.1448 3.482C25.9328 3.338 25.6948 3.234 25.4308 3.17C25.1668 3.102 24.8968 3.068 24.6208 3.068C24.2608 3.068 23.9208 3.146 23.6008 3.302C23.2808 3.454 23.0208 3.686 22.8208 3.998C22.6248 4.306 22.5268 4.696 22.5268 5.168C22.5268 5.552 22.6048 5.882 22.7608 6.158C22.9208 6.43 23.1568 6.638 23.4688 6.782C23.7808 6.922 24.1628 6.992 24.6148 6.992Z" fill="#FF0000"/>
<path d="M39.9226 8.318C39.5306 8.318 39.2126 8.234 38.9686 8.066C38.7286 7.902 38.5466 7.628 38.4226 7.244C38.2986 6.86 38.2146 6.342 38.1706 5.69C38.1506 5.526 38.1346 5.324 38.1226 5.084C38.1146 4.84 38.1086 4.578 38.1046 4.298C38.1046 4.014 38.1066 3.736 38.1106 3.464C38.1146 3.188 38.1186 2.934 38.1226 2.702C38.1306 2.466 38.1406 2.276 38.1526 2.132C38.1646 1.748 38.1906 1.432 38.2306 1.184C38.2746 0.932 38.3506 0.744 38.4586 0.62C38.5706 0.496 38.7266 0.434 38.9266 0.434C39.1786 0.434 39.3526 0.512 39.4486 0.668C39.5446 0.82 39.5926 1.076 39.5926 1.436C39.5926 1.552 39.5886 1.702 39.5806 1.886C39.5726 2.07 39.5626 2.274 39.5506 2.498C39.5386 2.722 39.5246 2.954 39.5086 3.194C39.4966 3.43 39.4846 3.664 39.4726 3.896C39.4646 4.128 39.4566 4.342 39.4486 4.538C39.4406 4.734 39.4366 4.902 39.4366 5.042C39.4366 5.518 39.4506 5.906 39.4786 6.206C39.5106 6.502 39.5566 6.732 39.6166 6.896C39.6766 7.056 39.7486 7.168 39.8326 7.232C39.9206 7.292 40.0206 7.322 40.1326 7.322C40.2846 7.322 40.4106 7.294 40.5106 7.238C40.6146 7.178 40.7086 7.12 40.7926 7.064C40.8766 7.004 40.9626 6.974 41.0506 6.974C41.1466 6.974 41.2206 7.008 41.2726 7.076C41.3286 7.144 41.3566 7.232 41.3566 7.34C41.3566 7.468 41.3166 7.592 41.2366 7.712C41.1566 7.828 41.0486 7.93 40.9126 8.018C40.7806 8.11 40.6286 8.182 40.4566 8.234C40.2846 8.29 40.1066 8.318 39.9226 8.318Z" fill="#52FF00"/>
<path d="M45.4076 8.414C44.7356 8.414 44.1536 8.312 43.6616 8.108C43.1696 7.904 42.7896 7.59 42.5216 7.166C42.2536 6.738 42.1196 6.194 42.1196 5.534C42.1196 4.986 42.2096 4.508 42.3896 4.1C42.5736 3.688 42.8256 3.344 43.1456 3.068C43.4656 2.792 43.8356 2.586 44.2556 2.45C44.6756 2.31 45.1236 2.24 45.5996 2.24C45.9236 2.24 46.2296 2.274 46.5176 2.342C46.8096 2.41 47.0676 2.516 47.2916 2.66C47.5196 2.8 47.6976 2.98 47.8256 3.2C47.9536 3.42 48.0176 3.682 48.0176 3.986C48.0176 4.31 47.9496 4.574 47.8136 4.778C47.6776 4.978 47.4916 5.136 47.2556 5.252C47.0196 5.364 46.7516 5.448 46.4516 5.504C46.1556 5.556 45.8456 5.596 45.5216 5.624C45.3576 5.652 45.1636 5.676 44.9396 5.696C44.7156 5.712 44.4976 5.726 44.2856 5.738C44.0776 5.746 43.9156 5.75 43.7996 5.75C43.6796 5.75 43.5976 5.766 43.5536 5.798C43.5096 5.83 43.4876 5.888 43.4876 5.972C43.4876 6.072 43.5156 6.19 43.5716 6.326C43.6276 6.458 43.7076 6.588 43.8116 6.716C44.0036 6.952 44.2256 7.11 44.4776 7.19C44.7336 7.266 45.0476 7.304 45.4196 7.304C45.7436 7.304 46.0396 7.266 46.3076 7.19C46.5756 7.11 46.8156 7.032 47.0276 6.956C47.2436 6.876 47.4376 6.836 47.6096 6.836C47.7656 6.836 47.8876 6.866 47.9756 6.926C48.0676 6.982 48.1136 7.094 48.1136 7.262C48.1136 7.414 48.0436 7.56 47.9036 7.7C47.7676 7.84 47.5776 7.962 47.3336 8.066C47.0896 8.174 46.8036 8.258 46.4756 8.318C46.1476 8.382 45.7916 8.414 45.4076 8.414ZM44.9336 5.078C45.2576 5.078 45.5596 5.048 45.8396 4.988C46.1196 4.924 46.3456 4.818 46.5176 4.67C46.6936 4.518 46.7816 4.31 46.7816 4.046C46.7816 3.734 46.6676 3.5 46.4396 3.344C46.2116 3.184 45.8916 3.104 45.4796 3.104C45.2356 3.104 44.9976 3.148 44.7656 3.236C44.5336 3.32 44.3276 3.438 44.1476 3.59C43.9676 3.742 43.8236 3.914 43.7156 4.106C43.6076 4.298 43.5536 4.504 43.5536 4.724C43.5536 4.836 43.5976 4.918 43.6856 4.97C43.7776 5.018 43.9236 5.048 44.1236 5.06C44.3276 5.072 44.5976 5.078 44.9336 5.078Z" fill="#FF00D6"/>
</svg>
