<svg width="45" height="10" viewBox="0 0 45 10" fill="none" xmlns="http://www.w3.org/2000/svg">
<path d="M7.02273 3C6.92898 2.71307 6.8054 2.45597 6.65199 2.22869C6.50142 1.99858 6.32102 1.80256 6.1108 1.64062C5.90341 1.47869 5.66761 1.35511 5.40341 1.26989C5.1392 1.18466 4.84943 1.14205 4.53409 1.14205C4.01705 1.14205 3.54688 1.27557 3.12358 1.54261C2.70028 1.80966 2.36364 2.20312 2.11364 2.72301C1.86364 3.2429 1.73864 3.88068 1.73864 4.63636C1.73864 5.39205 1.86506 6.02983 2.1179 6.54972C2.37074 7.0696 2.71307 7.46307 3.14489 7.73011C3.5767 7.99716 4.0625 8.13068 4.60227 8.13068C5.10227 8.13068 5.54261 8.02415 5.9233 7.81108C6.30682 7.59517 6.60511 7.29119 6.81818 6.89915C7.03409 6.50426 7.14205 6.03977 7.14205 5.50568L7.46591 5.57386H4.84091V4.63636H8.16477V5.57386C8.16477 6.29261 8.01136 6.91761 7.70455 7.44886C7.40057 7.98011 6.98011 8.39205 6.44318 8.68466C5.90909 8.97443 5.29545 9.11932 4.60227 9.11932C3.82955 9.11932 3.15057 8.9375 2.56534 8.57386C1.98295 8.21023 1.52841 7.69318 1.2017 7.02273C0.877841 6.35227 0.715909 5.55682 0.715909 4.63636C0.715909 3.94602 0.808239 3.32528 0.992898 2.77415C1.1804 2.22017 1.4446 1.74858 1.78551 1.35938C2.12642 0.97017 2.52983 0.671875 2.99574 0.464489C3.46165 0.257102 3.97443 0.153409 4.53409 0.153409C4.99432 0.153409 5.4233 0.223011 5.82102 0.362216C6.22159 0.498579 6.57812 0.693181 6.89062 0.946022C7.20597 1.19602 7.46875 1.49574 7.67898 1.84517C7.8892 2.19176 8.03409 2.5767 8.11364 3H7.02273ZM33.1087 3C33.0149 2.71307 32.8913 2.45597 32.7379 2.22869C32.5874 1.99858 32.407 1.80256 32.1967 1.64062C31.9893 1.47869 31.7536 1.35511 31.4893 1.26989C31.2251 1.18466 30.9354 1.14205 30.62 1.14205C30.103 1.14205 29.6328 1.27557 29.2095 1.54261C28.7862 1.80966 28.4496 2.20312 28.1996 2.72301C27.9496 3.2429 27.8246 3.88068 27.8246 4.63636C27.8246 5.39205 27.951 6.02983 28.2038 6.54972C28.4567 7.0696 28.799 7.46307 29.2308 7.73011C29.6626 7.99716 30.1484 8.13068 30.6882 8.13068C31.1882 8.13068 31.6286 8.02415 32.0092 7.81108C32.3928 7.59517 32.6911 7.29119 32.9041 6.89915C33.12 6.50426 33.228 6.03977 33.228 5.50568L33.5518 5.57386H30.9268V4.63636H34.2507V5.57386C34.2507 6.29261 34.0973 6.91761 33.7905 7.44886C33.4865 7.98011 33.0661 8.39205 32.5291 8.68466C31.995 8.97443 31.3814 9.11932 30.6882 9.11932C29.9155 9.11932 29.2365 8.9375 28.6513 8.57386C28.0689 8.21023 27.6143 7.69318 27.2876 7.02273C26.9638 6.35227 26.8018 5.55682 26.8018 4.63636C26.8018 3.94602 26.8942 3.32528 27.0788 2.77415C27.2663 2.22017 27.5305 1.74858 27.8714 1.35938C28.2124 0.97017 28.6158 0.671875 29.0817 0.464489C29.5476 0.257102 30.0604 0.153409 30.62 0.153409C31.0803 0.153409 31.5092 0.223011 31.907 0.362216C32.3075 0.498579 32.6641 0.693181 32.9766 0.946022C33.2919 1.19602 33.5547 1.49574 33.7649 1.84517C33.9751 2.19176 34.12 2.5767 34.1996 3H33.1087Z" fill="#0038FF"/>
<path d="M10.8441 0.272727V9H9.83842V0.272727H10.8441Z" fill="#FFE600"/>
<path d="M15.3452 9.13636C14.7543 9.13636 14.2358 8.99574 13.7898 8.71449C13.3466 8.43324 13 8.03977 12.75 7.53409C12.5028 7.02841 12.3793 6.4375 12.3793 5.76136C12.3793 5.07955 12.5028 4.48437 12.75 3.97585C13 3.46733 13.3466 3.07244 13.7898 2.79119C14.2358 2.50994 14.7543 2.36932 15.3452 2.36932C15.9361 2.36932 16.4531 2.50994 16.8963 2.79119C17.3423 3.07244 17.6889 3.46733 17.9361 3.97585C18.1861 4.48437 18.3111 5.07955 18.3111 5.76136C18.3111 6.4375 18.1861 7.02841 17.9361 7.53409C17.6889 8.03977 17.3423 8.43324 16.8963 8.71449C16.4531 8.99574 15.9361 9.13636 15.3452 9.13636ZM15.3452 8.23295C15.794 8.23295 16.1634 8.1179 16.4531 7.88778C16.7429 7.65767 16.9574 7.35511 17.0966 6.98011C17.2358 6.60511 17.3054 6.19886 17.3054 5.76136C17.3054 5.32386 17.2358 4.91619 17.0966 4.53835C16.9574 4.16051 16.7429 3.85511 16.4531 3.62216C16.1634 3.3892 15.794 3.27273 15.3452 3.27273C14.8963 3.27273 14.527 3.3892 14.2372 3.62216C13.9474 3.85511 13.733 4.16051 13.5938 4.53835C13.4545 4.91619 13.3849 5.32386 13.3849 5.76136C13.3849 6.19886 13.4545 6.60511 13.5938 6.98011C13.733 7.35511 13.9474 7.65767 14.2372 7.88778C14.527 8.1179 14.8963 8.23295 15.3452 8.23295ZM22.5053 9.13636C21.9144 9.13636 21.396 8.99574 20.9499 8.71449C20.5067 8.43324 20.1602 8.03977 19.9102 7.53409C19.663 7.02841 19.5394 6.4375 19.5394 5.76136C19.5394 5.07955 19.663 4.48437 19.9102 3.97585C20.1602 3.46733 20.5067 3.07244 20.9499 2.79119C21.396 2.50994 21.9144 2.36932 22.5053 2.36932C23.0962 2.36932 23.6133 2.50994 24.0565 2.79119C24.5025 3.07244 24.8491 3.46733 25.0962 3.97585C25.3462 4.48437 25.4712 5.07955 25.4712 5.76136C25.4712 6.4375 25.3462 7.02841 25.0962 7.53409C24.8491 8.03977 24.5025 8.43324 24.0565 8.71449C23.6133 8.99574 23.0962 9.13636 22.5053 9.13636ZM22.5053 8.23295C22.9542 8.23295 23.3235 8.1179 23.6133 7.88778C23.9031 7.65767 24.1175 7.35511 24.2567 6.98011C24.396 6.60511 24.4656 6.19886 24.4656 5.76136C24.4656 5.32386 24.396 4.91619 24.2567 4.53835C24.1175 4.16051 23.9031 3.85511 23.6133 3.62216C23.3235 3.3892 22.9542 3.27273 22.5053 3.27273C22.0565 3.27273 21.6871 3.3892 21.3974 3.62216C21.1076 3.85511 20.8931 4.16051 20.7539 4.53835C20.6147 4.91619 20.5451 5.32386 20.5451 5.76136C20.5451 6.19886 20.6147 6.60511 20.7539 6.98011C20.8931 7.35511 21.1076 7.65767 21.3974 7.88778C21.6871 8.1179 22.0565 8.23295 22.5053 8.23295Z" fill="#FF0000"/>
<path d="M36.93 0.272727V9H35.9244V0.272727H36.93Z" fill="#52FF00"/>
<path d="M41.5163 9.13636C40.8857 9.13636 40.3416 8.99716 39.8842 8.71875C39.4297 8.4375 39.0788 8.04545 38.8317 7.54261C38.5874 7.03693 38.4652 6.44886 38.4652 5.77841C38.4652 5.10795 38.5874 4.51705 38.8317 4.00568C39.0788 3.49148 39.4226 3.09091 39.8629 2.80398C40.3061 2.5142 40.8232 2.36932 41.4141 2.36932C41.755 2.36932 42.0916 2.42614 42.424 2.53977C42.7564 2.65341 43.0589 2.83807 43.3317 3.09375C43.6044 3.34659 43.8217 3.68182 43.9837 4.09943C44.1456 4.51705 44.2266 5.03125 44.2266 5.64205V6.06818H39.1811V5.19886H43.2038C43.2038 4.82955 43.13 4.5 42.9822 4.21023C42.8374 3.92045 42.63 3.69176 42.3601 3.52415C42.093 3.35653 41.7777 3.27273 41.4141 3.27273C41.0135 3.27273 40.6669 3.37216 40.3743 3.57102C40.0845 3.76705 39.8615 4.02273 39.7053 4.33807C39.549 4.65341 39.4709 4.99148 39.4709 5.35227V5.93182C39.4709 6.42614 39.5561 6.84517 39.7266 7.18892C39.8999 7.52983 40.1399 7.78977 40.4467 7.96875C40.7536 8.14489 41.1101 8.23295 41.5163 8.23295C41.7805 8.23295 42.0192 8.19602 42.2322 8.12216C42.4482 8.04545 42.6342 7.93182 42.7905 7.78125C42.9467 7.62784 43.0675 7.4375 43.1527 7.21023L44.1243 7.48295C44.022 7.8125 43.8501 8.10227 43.6087 8.35227C43.3672 8.59943 43.0689 8.79261 42.7138 8.93182C42.3587 9.06818 41.9595 9.13636 41.5163 9.13636Z" fill="#FF00D6"/>
</svg>
