<svg width="24" height="24" viewBox="0 0 24 24" fill="none" xmlns="http://www.w3.org/2000/svg">
<circle cx="12" cy="12" r="11.5" stroke="#3FA6FF"/>
<circle cx="12" cy="9" r="4.5" stroke="#3FA6FF"/>
<circle cx="10" cy="8" r="1" fill="#3FA6FF"/>
<circle cx="14" cy="8" r="1" fill="#3FA6FF"/>
<path d="M13.5 10.5001C13.5 11.0001 12.5523 11.5 12 11.5C11.4477 11.5 10.5 11.0523 10.5 10.5C10.5 10.0001 11.4477 10.5 12 10.5C12.5523 10.5 13.5 10.0001 13.5 10.5001Z" fill="#3FA6FF"/>
<path d="M17.4996 18.7591C17.4996 23.4141 17.4809 22.5 11.9997 22.5C6.51849 22.5 6.4137 23.3575 6.4137 18.7025C6.4137 14.0475 6.42329 14.2591 11.9045 14.2591C17.3857 14.2591 17.4996 14.1041 17.4996 18.7591Z" stroke="#3FA6FF"/>
</svg>
